<svg width="150" height="44" viewBox="0 0 150 44" fill="none" xmlns="http://www.w3.org/2000/svg">
<g clip-path="url(#clip0_8029_98089)">
<path d="M144.663 43.5H5.25444C2.62986 43.5 0.5 41.379 0.5 38.7937V5.1986C0.5 2.61321 2.62882 0.5 5.25444 0.5H144.663C147.298 0.5 149.5 2.62324 149.5 5.1986V38.7937C149.5 41.369 147.297 43.5 144.663 43.5Z" stroke="#1A2F36"/>
<path d="M144.663 43.5H5.25444C2.62986 43.5 0.5 41.379 0.5 38.7937V5.1986C0.5 2.61321 2.62882 0.5 5.25444 0.5H144.663C147.298 0.5 149.5 2.62324 149.5 5.1986V38.7937C149.5 41.369 147.297 43.5 144.663 43.5Z" stroke="white" stroke-opacity="0.82"/>
<path d="M148.925 38.7948C148.925 41.1224 147.02 43.0078 144.665 43.0078H5.25481C2.90037 43.0078 0.989258 41.1224 0.989258 38.7948V5.1975C0.989258 2.871 2.90037 0.979004 5.25481 0.979004H144.664C147.02 0.979004 148.924 2.871 148.924 5.1975L148.925 38.7948Z" fill="white"/>
<path d="M33.4752 21.7628C33.443 18.2175 36.4074 16.4927 36.543 16.4124C34.8641 13.9891 32.2619 13.658 31.3474 13.6316C29.1619 13.4039 27.0419 14.9263 25.9286 14.9263C24.793 14.9263 23.0786 13.6536 21.2308 13.691C18.853 13.7273 16.6286 15.0902 15.4086 17.2066C12.8908 21.5219 14.7686 27.8634 17.1808 31.3515C18.3874 33.0598 19.7974 34.9672 21.643 34.9001C23.4486 34.8264 24.123 33.7605 26.3019 33.7605C28.4608 33.7605 29.0941 34.9001 30.9763 34.8572C32.9141 34.8264 34.1341 33.1412 35.2986 31.4175C36.693 29.4595 37.253 27.5312 37.2752 27.4322C37.2297 27.4168 33.5119 26.0121 33.4752 21.7628Z" fill="#1A2F36"/>
<path d="M29.92 11.3368C30.8912 10.1345 31.5556 8.49877 31.3712 6.83887C29.9656 6.90047 28.2078 7.80137 27.1956 8.97727C26.3 10.0135 25.5 11.7119 25.7067 13.3091C27.2856 13.4257 28.9067 12.5204 29.92 11.3368Z" fill="#1A2F36"/>
<path d="M59.6054 34.6544H57.0821L55.6999 30.3545H50.8954L49.5787 34.6544H47.1221L51.8821 20.0156H54.8221L59.6054 34.6544ZM55.2832 28.5505L54.0332 24.728C53.901 24.3375 53.6532 23.4179 53.2876 21.9703H53.2432C53.0976 22.5929 52.8632 23.5125 52.541 24.728L51.3132 28.5505H55.2832Z" fill="#1A2F36"/>
<path d="M71.8469 29.247C71.8469 31.0422 71.3569 32.4612 70.3769 33.5029C69.4991 34.4302 68.4091 34.8933 67.108 34.8933C65.7035 34.8933 64.6947 34.3939 64.0802 33.3951H64.0358V38.9556H61.6669V27.5739C61.6669 26.4453 61.6369 25.287 61.5791 24.099H63.6624L63.7947 25.7721H63.8391C64.6291 24.5115 65.828 23.8823 67.4369 23.8823C68.6947 23.8823 69.7447 24.374 70.5847 25.3585C71.4269 26.3441 71.8469 27.6399 71.8469 29.247ZM69.4335 29.3328C69.4335 28.3054 69.2002 27.4584 68.7313 26.7918C68.2191 26.0966 67.5313 25.749 66.6691 25.749C66.0847 25.749 65.5535 25.9426 65.0791 26.3243C64.6035 26.7093 64.2924 27.212 64.1469 27.8346C64.0735 28.125 64.0369 28.3626 64.0369 28.5496V30.3096C64.0369 31.0774 64.2747 31.7253 64.7502 32.2544C65.2258 32.7835 65.8435 33.0475 66.6035 33.0475C67.4958 33.0475 68.1902 32.7065 68.6869 32.0267C69.1847 31.3458 69.4335 30.4482 69.4335 29.3328Z" fill="#1A2F36"/>
<path d="M84.1094 29.247C84.1094 31.0422 83.6194 32.4612 82.6383 33.5029C81.7617 34.4302 80.6717 34.8933 79.3706 34.8933C77.9661 34.8933 76.9572 34.3939 76.3439 33.3951H76.2994V38.9556H73.9306V27.5739C73.9306 26.4453 73.9006 25.287 73.8428 24.099H75.9261L76.0583 25.7721H76.1028C76.8917 24.5115 78.0906 23.8823 79.7006 23.8823C80.9572 23.8823 82.0072 24.374 82.8494 25.3585C83.6883 26.3441 84.1094 27.6399 84.1094 29.247ZM81.6961 29.3328C81.6961 28.3054 81.4617 27.4584 80.9928 26.7918C80.4806 26.0966 79.795 25.749 78.9317 25.749C78.3461 25.749 77.8161 25.9426 77.3406 26.3243C76.865 26.7093 76.555 27.212 76.4094 27.8346C76.3372 28.125 76.2994 28.3626 76.2994 28.5496V30.3096C76.2994 31.0774 76.5372 31.7253 77.0105 32.2544C77.4861 32.7824 78.1039 33.0475 78.8661 33.0475C79.7583 33.0475 80.4528 32.7065 80.9494 32.0267C81.4472 31.3458 81.6961 30.4482 81.6961 29.3328Z" fill="#1A2F36"/>
<path d="M97.8208 30.5494C97.8208 31.7946 97.3841 32.8077 96.5075 33.5898C95.5441 34.4445 94.203 34.8713 92.4797 34.8713C90.8886 34.8713 89.613 34.5677 88.6475 33.9594L89.1964 32.0047C90.2364 32.6273 91.3775 32.9397 92.6208 32.9397C93.513 32.9397 94.2075 32.7395 94.7064 32.3413C95.203 31.9431 95.4508 31.4085 95.4508 30.7419C95.4508 30.1479 95.2463 29.6474 94.8363 29.2415C94.4286 28.8356 93.7475 28.4583 92.7964 28.1096C90.2075 27.1537 88.9141 25.7534 88.9141 23.912C88.9141 22.7086 89.3675 21.7219 90.2752 20.9541C91.1797 20.1852 92.3863 19.8013 93.8952 19.8013C95.2408 19.8013 96.3586 20.0334 97.2508 20.4965L96.6586 22.4083C95.8252 21.9595 94.883 21.7351 93.8286 21.7351C92.9952 21.7351 92.3441 21.9386 91.8775 22.3434C91.483 22.7053 91.2852 23.1464 91.2852 23.6689C91.2852 24.2475 91.5108 24.726 91.9641 25.1022C92.3586 25.4498 93.0752 25.826 94.1152 26.2319C95.3875 26.739 96.3219 27.3319 96.923 28.0117C97.5219 28.6893 97.8208 29.5374 97.8208 30.5494Z" fill="#1A2F36"/>
<path d="M105.653 25.8588H103.042V30.9837C103.042 32.2872 103.502 32.9384 104.425 32.9384C104.848 32.9384 105.199 32.9021 105.477 32.8295L105.542 34.6105C105.076 34.7832 104.461 34.8701 103.7 34.8701C102.765 34.8701 102.033 34.5874 101.506 34.0231C100.98 33.4577 100.716 32.5095 100.716 31.1774V25.8567H99.1602V24.0966H100.716V22.1639L103.042 21.4688V24.0966H105.653V25.8588Z" fill="#1A2F36"/>
<path d="M117.435 29.2898C117.435 30.9123 116.966 32.2444 116.03 33.2861C115.049 34.3586 113.747 34.8932 112.123 34.8932C110.559 34.8932 109.313 34.3795 108.385 33.3521C107.456 32.3247 106.991 31.0278 106.991 29.4647C106.991 27.829 107.469 26.4892 108.428 25.4475C109.385 24.4047 110.676 23.8833 112.299 23.8833C113.863 23.8833 115.122 24.397 116.072 25.4255C116.981 26.4232 117.435 27.7113 117.435 29.2898ZM114.977 29.3657C114.977 28.3922 114.767 27.5573 114.341 26.861C113.845 26.0184 113.135 25.5982 112.215 25.5982C111.262 25.5982 110.539 26.0195 110.042 26.861C109.617 27.5584 109.407 28.4065 109.407 29.4097C109.407 30.3832 109.617 31.2181 110.042 31.9133C110.555 32.7559 111.27 33.1761 112.193 33.1761C113.098 33.1761 113.808 32.7471 114.32 31.8913C114.757 31.1818 114.977 30.3381 114.977 29.3657Z" fill="#1A2F36"/>
<path d="M125.134 26.1615C124.9 26.1186 124.65 26.0966 124.387 26.0966C123.554 26.0966 122.91 26.4079 122.456 27.0316C122.062 27.5816 121.864 28.2768 121.864 29.1161V34.6546H119.496L119.519 27.4232C119.519 26.2066 119.489 25.0989 119.43 24.1001H121.493L121.58 26.1197H121.645C121.895 25.4256 122.29 24.8668 122.83 24.4477C123.357 24.0704 123.927 23.8823 124.542 23.8823C124.761 23.8823 124.959 23.8977 125.134 23.9252V26.1615Z" fill="#1A2F36"/>
<path d="M135.728 28.8772C135.728 29.2974 135.701 29.6516 135.642 29.9409H128.535C128.563 30.9837 128.906 31.7812 129.566 32.3312C130.165 32.8229 130.94 33.0693 131.891 33.0693C132.943 33.0693 133.903 32.9032 134.766 32.5699L135.137 34.1979C134.128 34.6335 132.937 34.8502 131.563 34.8502C129.91 34.8502 128.612 34.3684 127.667 33.4059C126.725 32.4434 126.253 31.1509 126.253 29.5295C126.253 27.9378 126.692 26.6123 127.571 25.5552C128.491 24.4266 129.734 23.8623 131.298 23.8623C132.835 23.8623 133.998 24.4266 134.788 25.5552C135.414 26.4517 135.728 27.5605 135.728 28.8772ZM133.47 28.2689C133.485 27.5737 133.331 26.9731 133.01 26.466C132.6 25.8137 131.97 25.4881 131.122 25.4881C130.347 25.4881 129.717 25.806 129.236 26.444C128.842 26.9511 128.607 27.5594 128.535 28.2678L133.47 28.2689Z" fill="#1A2F36"/>
<path d="M54.5004 11.0101C54.5004 12.3048 54.1082 13.2794 53.3249 13.9339C52.5993 14.5378 51.5682 14.8403 50.2326 14.8403C49.5704 14.8403 49.0037 14.8117 48.5293 14.7545V7.68036C49.1482 7.58136 49.8149 7.53076 50.5349 7.53076C51.8071 7.53076 52.766 7.80466 53.4126 8.35246C54.1371 8.97176 54.5004 9.85726 54.5004 11.0101ZM53.2726 11.042C53.2726 10.2027 53.0482 9.55916 52.5993 9.11036C52.1504 8.66266 51.4949 8.43826 50.6315 8.43826C50.2649 8.43826 49.9526 8.46246 49.6937 8.51306V13.891C49.8371 13.913 50.0993 13.9229 50.4804 13.9229C51.3715 13.9229 52.0593 13.6776 52.5437 13.187C53.0282 12.6964 53.2726 11.9814 53.2726 11.042Z" fill="#1A2F36"/>
<path d="M61.0109 12.1408C61.0109 12.9383 60.7809 13.5917 60.3209 14.1043C59.8386 14.6312 59.1997 14.8941 58.402 14.8941C57.6331 14.8941 57.0209 14.6422 56.5642 14.1362C56.1086 13.6313 55.8809 12.9944 55.8809 12.2266C55.8809 11.4236 56.1153 10.7647 56.5864 10.2532C57.0575 9.74165 57.6909 9.48535 58.4886 9.48535C59.2575 9.48535 59.8753 9.73725 60.3431 10.2422C60.7875 10.7328 61.0109 11.3664 61.0109 12.1408ZM59.8031 12.1782C59.8031 11.6997 59.6986 11.2894 59.4909 10.9473C59.2464 10.5337 58.8986 10.3269 58.4464 10.3269C57.9786 10.3269 57.6231 10.5337 57.3786 10.9473C57.1697 11.2894 57.0664 11.7063 57.0664 12.1991C57.0664 12.6776 57.1709 13.0879 57.3786 13.43C57.6309 13.8436 57.982 14.0504 58.4353 14.0504C58.8797 14.0504 59.2286 13.8403 59.4797 13.419C59.6953 13.0703 59.8031 12.6567 59.8031 12.1782Z" fill="#1A2F36"/>
<path d="M69.7393 9.59131L68.1004 14.7767H67.0337L66.3548 12.525C66.1826 11.9629 66.0426 11.4041 65.9337 10.8497H65.9126C65.8115 11.4195 65.6715 11.9772 65.4915 12.525L64.7704 14.7767H63.6915L62.1504 9.59131H63.3471L63.9393 12.0564C64.0826 12.6394 64.2004 13.1949 64.2948 13.7207H64.3159C64.4026 13.2873 64.5459 12.7351 64.7482 12.0674L65.4915 9.59241H66.4404L67.1526 12.0146C67.3248 12.6053 67.4648 13.174 67.5726 13.7218H67.6048C67.6837 13.1883 67.8026 12.6196 67.9604 12.0146L68.5959 9.59241H69.7393V9.59131Z" fill="#1A2F36"/>
<path d="M75.7757 14.7767H74.6112V11.8067C74.6112 10.8915 74.2601 10.4339 73.5557 10.4339C73.2101 10.4339 72.9312 10.5593 72.7146 10.8112C72.5001 11.0631 72.3912 11.3601 72.3912 11.7V14.7756H71.2268V11.073C71.2268 10.6176 71.2123 10.1237 71.1846 9.58912H72.2079L72.2623 10.3998H72.2946C72.4301 10.1479 72.6323 9.94002 72.8979 9.77392C73.2135 9.58032 73.5668 9.48242 73.9535 9.48242C74.4423 9.48242 74.849 9.63862 75.1723 9.95212C75.5746 10.336 75.7757 10.9091 75.7757 11.6703V14.7767Z" fill="#1A2F36"/>
<path d="M78.9875 14.7766H77.8242V7.21191H78.9875V14.7766Z" fill="#1A2F36"/>
<path d="M85.8429 12.1408C85.8429 12.9383 85.6129 13.5917 85.1529 14.1043C84.6707 14.6312 84.0307 14.8941 83.234 14.8941C82.464 14.8941 81.8518 14.6422 81.3962 14.1362C80.9407 13.6313 80.7129 12.9944 80.7129 12.2266C80.7129 11.4236 80.9473 10.7647 81.4184 10.2532C81.8896 9.74165 82.5229 9.48535 83.3196 9.48535C84.0896 9.48535 84.7062 9.73725 85.1751 10.2422C85.6196 10.7328 85.8429 11.3664 85.8429 12.1408ZM84.634 12.1782C84.634 11.6997 84.5296 11.2894 84.3218 10.9473C84.0784 10.5337 83.7296 10.3269 83.2784 10.3269C82.8096 10.3269 82.454 10.5337 82.2107 10.9473C82.0018 11.2894 81.8984 11.7063 81.8984 12.1991C81.8984 12.6776 82.0029 13.0879 82.2107 13.43C82.4629 13.8436 82.814 14.0504 83.2673 14.0504C83.7118 14.0504 84.0596 13.8403 84.3107 13.419C84.5273 13.0703 84.634 12.6567 84.634 12.1782Z" fill="#1A2F36"/>
<path d="M91.4777 14.7764H90.4322L90.3455 14.1791H90.3133C89.9555 14.6554 89.4455 14.8941 88.7833 14.8941C88.2888 14.8941 87.8888 14.7368 87.5877 14.4244C87.3144 14.1406 87.1777 13.7875 87.1777 13.3684C87.1777 12.7348 87.4444 12.2519 87.9811 11.9175C88.5166 11.5831 89.27 11.4192 90.24 11.4269V11.3301C90.24 10.647 89.8777 10.306 89.1522 10.306C88.6355 10.306 88.18 10.4347 87.7866 10.6899L87.55 9.93305C88.0366 9.63495 88.6377 9.48535 89.3466 9.48535C90.7155 9.48535 91.4022 10.2004 91.4022 11.6304V13.54C91.4022 14.0581 91.4277 14.4706 91.4777 14.7764ZM90.2688 12.9944V12.1947C88.9844 12.1727 88.3422 12.5214 88.3422 13.2397C88.3422 13.5103 88.4155 13.7127 88.5655 13.848C88.7155 13.9833 88.9066 14.0504 89.1344 14.0504C89.39 14.0504 89.6288 13.9701 89.8466 13.8106C90.0655 13.65 90.2 13.4465 90.25 13.1968C90.2622 13.1407 90.2688 13.0725 90.2688 12.9944Z" fill="#1A2F36"/>
<path d="M98.0947 14.7766H97.0614L97.0069 13.9439H96.9747C96.6447 14.5775 96.0825 14.8943 95.2925 14.8943C94.6614 14.8943 94.1358 14.649 93.7192 14.1584C93.3025 13.6678 93.0947 13.0309 93.0947 12.2488C93.0947 11.4095 93.3203 10.7297 93.7736 10.2105C94.2125 9.72651 94.7503 9.48451 95.3903 9.48451C96.0936 9.48451 96.5858 9.71881 96.8658 10.1885H96.8881V7.21191H98.0536V13.3796C98.0536 13.8845 98.067 14.3498 98.0947 14.7766ZM96.8881 12.5898V11.7252C96.8881 11.5756 96.8769 11.4546 96.8558 11.3622C96.7903 11.085 96.6492 10.8518 96.4347 10.6637C96.2181 10.4756 95.9569 10.381 95.6558 10.381C95.2214 10.381 94.8814 10.5515 94.6314 10.8936C94.3836 11.2357 94.2581 11.6724 94.2581 12.2059C94.2581 12.7185 94.3769 13.1343 94.6158 13.4544C94.8681 13.7954 95.2081 13.9659 95.6336 13.9659C96.0158 13.9659 96.3214 13.824 96.5536 13.5391C96.7781 13.2762 96.8881 12.9594 96.8881 12.5898Z" fill="#1A2F36"/>
<path d="M108.054 12.1412C108.054 12.9387 107.824 13.5921 107.364 14.1047C106.882 14.6316 106.244 14.8945 105.445 14.8945C104.677 14.8945 104.065 14.6426 103.607 14.1366C103.152 13.6317 102.924 12.9948 102.924 12.227C102.924 11.424 103.158 10.7651 103.629 10.2536C104.1 9.74214 104.734 9.48584 105.533 9.48584C106.3 9.48584 106.919 9.73774 107.386 10.2426C107.831 10.7332 108.054 11.3668 108.054 12.1412ZM106.847 12.1786C106.847 11.7001 106.743 11.2898 106.535 10.9477C106.289 10.5341 105.943 10.3273 105.489 10.3273C105.023 10.3273 104.667 10.5341 104.422 10.9477C104.213 11.2898 104.109 11.7067 104.109 12.1995C104.109 12.678 104.214 13.0883 104.422 13.4304C104.674 13.844 105.025 14.0508 105.478 14.0508C105.923 14.0508 106.273 13.8407 106.524 13.4194C106.738 13.0707 106.847 12.6571 106.847 12.1786Z" fill="#1A2F36"/>
<path d="M114.315 14.7767H113.151V11.8067C113.151 10.8915 112.8 10.4339 112.095 10.4339C111.749 10.4339 111.47 10.5593 111.255 10.8112C111.039 11.0631 110.931 11.3601 110.931 11.7V14.7756H109.766V11.073C109.766 10.6176 109.752 10.1237 109.725 9.58912H110.747L110.801 10.3998H110.833C110.97 10.1479 111.172 9.94002 111.437 9.77392C111.753 9.58032 112.106 9.48242 112.494 9.48242C112.981 9.48242 113.388 9.63862 113.711 9.95212C114.115 10.336 114.315 10.9091 114.315 11.6703V14.7767Z" fill="#1A2F36"/>
<path d="M122.152 10.4547H120.87V12.9737C120.87 13.6139 121.097 13.934 121.549 13.934C121.757 13.934 121.931 13.9164 122.067 13.8801L122.097 14.7546C121.867 14.8404 121.565 14.8833 121.193 14.8833C120.733 14.8833 120.375 14.7447 120.116 14.4675C119.856 14.1903 119.727 13.7239 119.727 13.0694V10.4547H118.962V9.5912H119.727V8.6408L120.869 8.2998V9.59011H122.151L122.152 10.4547Z" fill="#1A2F36"/>
<path d="M128.316 14.7766H127.151V11.8286C127.151 10.8991 126.8 10.4338 126.096 10.4338C125.556 10.4338 125.188 10.7033 124.985 11.2423C124.951 11.3556 124.931 11.4942 124.931 11.657V14.7755H123.768V7.21191H124.931V10.337H124.953C125.32 9.76831 125.845 9.48451 126.526 9.48451C127.009 9.48451 127.408 9.64071 127.724 9.95421C128.119 10.3447 128.316 10.9255 128.316 11.6933V14.7766Z" fill="#1A2F36"/>
<path d="M134.675 11.9385C134.675 12.1453 134.66 12.3191 134.632 12.461H131.14C131.155 12.9736 131.322 13.3641 131.645 13.6347C131.941 13.8767 132.322 13.9977 132.789 13.9977C133.305 13.9977 133.776 13.9163 134.201 13.7524L134.383 14.5532C133.886 14.7666 133.302 14.8733 132.625 14.8733C131.814 14.8733 131.175 14.6368 130.713 14.1638C130.249 13.6908 130.019 13.0561 130.019 12.2597C130.019 11.4776 130.233 10.8264 130.665 10.3072C131.116 9.75279 131.726 9.47559 132.496 9.47559C133.25 9.47559 133.822 9.75279 134.209 10.3072C134.521 10.7472 134.675 11.2917 134.675 11.9385ZM133.564 11.6404C133.573 11.2983 133.496 11.0035 133.339 10.7549C133.136 10.4348 132.829 10.2742 132.412 10.2742C132.032 10.2742 131.722 10.4304 131.485 10.7439C131.292 10.9936 131.177 11.2917 131.14 11.6404H133.564Z" fill="#1A2F36"/>
</g>
<defs>
<clipPath id="clip0_8029_98089">
<rect width="150" height="44" fill="white"/>
</clipPath>
</defs>
</svg>
