<svg width="150" height="44" viewBox="0 0 150 44" fill="none" xmlns="http://www.w3.org/2000/svg">
<g clip-path="url(#clip0_8029_98080)">
<path d="M144.443 44.0002H5.55932C2.50382 44.0002 0.00390625 41.5252 0.00390625 38.5003V5.50087C0.00390625 2.47591 2.50382 0.000976562 5.55932 0.000976562H144.443C147.498 0.000976562 149.998 2.47591 149.998 5.50087V38.5003C149.998 41.5252 147.498 44.0002 144.443 44.0002Z" fill="white"/>
<mask id="path-2-inside-1_8029_98080" fill="white">
<path d="M144.443 0.000976562H5.55932C2.50382 0.000976562 0.00390625 2.47591 0.00390625 5.50087V38.5003C0.00390625 41.5252 2.50382 44.0002 5.55932 44.0002H144.443C147.498 44.0002 149.998 41.5252 149.998 38.5003V5.50087C149.998 2.47591 147.498 0.000976562 144.443 0.000976562ZM144.443 0.880515C147.016 0.880515 149.109 2.95334 149.109 5.50087V38.5003C149.109 41.0478 147.016 43.1206 144.443 43.1206H5.55932C2.98607 43.1206 0.89324 41.0478 0.89324 38.5003V5.50087C0.89324 2.95334 2.98607 0.880515 5.55932 0.880515H144.443Z"/>
</mask>
<path d="M144.443 -0.999023H5.55932V1.00098H144.443V-0.999023ZM5.55932 -0.999023C1.96103 -0.999023 -0.996094 1.91418 -0.996094 5.50087H1.00391C1.00391 3.03764 3.04661 1.00098 5.55932 1.00098V-0.999023ZM-0.996094 5.50087V38.5003H1.00391V5.50087H-0.996094ZM-0.996094 38.5003C-0.996094 42.087 1.96103 45.0002 5.55932 45.0002V43.0002C3.04661 43.0002 1.00391 40.9635 1.00391 38.5003H-0.996094ZM5.55932 45.0002H144.443V43.0002H5.55932V45.0002ZM144.443 45.0002C148.041 45.0002 150.998 42.087 150.998 38.5003H148.998C148.998 40.9635 146.955 43.0002 144.443 43.0002V45.0002ZM150.998 38.5003V5.50087H148.998V38.5003H150.998ZM150.998 5.50087C150.998 1.91418 148.041 -0.999023 144.443 -0.999023V1.00098C146.955 1.00098 148.998 3.03764 148.998 5.50087H150.998ZM144.443 1.88051C146.473 1.88051 148.109 3.51496 148.109 5.50087H150.109C150.109 2.39173 147.559 -0.119485 144.443 -0.119485V1.88051ZM148.109 5.50087V38.5003H150.109V5.50087H148.109ZM148.109 38.5003C148.109 40.4862 146.473 42.1206 144.443 42.1206V44.1206C147.559 44.1206 150.109 41.6094 150.109 38.5003H148.109ZM144.443 42.1206H5.55932V44.1206H144.443V42.1206ZM5.55932 42.1206C3.52912 42.1206 1.89324 40.4863 1.89324 38.5003H-0.10676C-0.10676 41.6093 2.44303 44.1206 5.55932 44.1206V42.1206ZM1.89324 38.5003V5.50087H-0.10676V38.5003H1.89324ZM1.89324 5.50087C1.89324 3.51482 3.52912 1.88051 5.55932 1.88051V-0.119485C2.44303 -0.119485 -0.10676 2.39186 -0.10676 5.50087H1.89324ZM5.55932 1.88051H144.443V-0.119485H5.55932V1.88051Z" fill="#1A2F36" mask="url(#path-2-inside-1_8029_98080)"/>
<path d="M144.443 -0.999023H5.55932V1.00098H144.443V-0.999023ZM5.55932 -0.999023C1.96103 -0.999023 -0.996094 1.91418 -0.996094 5.50087H1.00391C1.00391 3.03764 3.04661 1.00098 5.55932 1.00098V-0.999023ZM-0.996094 5.50087V38.5003H1.00391V5.50087H-0.996094ZM-0.996094 38.5003C-0.996094 42.087 1.96103 45.0002 5.55932 45.0002V43.0002C3.04661 43.0002 1.00391 40.9635 1.00391 38.5003H-0.996094ZM5.55932 45.0002H144.443V43.0002H5.55932V45.0002ZM144.443 45.0002C148.041 45.0002 150.998 42.087 150.998 38.5003H148.998C148.998 40.9635 146.955 43.0002 144.443 43.0002V45.0002ZM150.998 38.5003V5.50087H148.998V38.5003H150.998ZM150.998 5.50087C150.998 1.91418 148.041 -0.999023 144.443 -0.999023V1.00098C146.955 1.00098 148.998 3.03764 148.998 5.50087H150.998ZM144.443 1.88051C146.473 1.88051 148.109 3.51496 148.109 5.50087H150.109C150.109 2.39173 147.559 -0.119485 144.443 -0.119485V1.88051ZM148.109 5.50087V38.5003H150.109V5.50087H148.109ZM148.109 38.5003C148.109 40.4862 146.473 42.1206 144.443 42.1206V44.1206C147.559 44.1206 150.109 41.6094 150.109 38.5003H148.109ZM144.443 42.1206H5.55932V44.1206H144.443V42.1206ZM5.55932 42.1206C3.52912 42.1206 1.89324 40.4863 1.89324 38.5003H-0.10676C-0.10676 41.6093 2.44303 44.1206 5.55932 44.1206V42.1206ZM1.89324 38.5003V5.50087H-0.10676V38.5003H1.89324ZM1.89324 5.50087C1.89324 3.51482 3.52912 1.88051 5.55932 1.88051V-0.119485C2.44303 -0.119485 -0.10676 2.39186 -0.10676 5.50087H1.89324ZM5.55932 1.88051H144.443V-0.119485H5.55932V1.88051Z" fill="white" fill-opacity="0.82" mask="url(#path-2-inside-1_8029_98080)"/>
<path d="M118.816 33H120.89V19.248H118.816V33ZM137.491 24.2022L135.114 30.164H135.043L132.576 24.2022H130.343L134.043 32.5347L131.933 37.17H134.095L139.796 24.2026L137.491 24.2022ZM125.732 31.438C125.054 31.438 124.107 31.1015 124.107 30.2701C124.107 29.2087 125.287 28.8018 126.304 28.8018C127.216 28.8018 127.646 28.9961 128.199 29.2616C128.038 30.5356 126.93 31.438 125.732 31.438ZM125.983 23.9014C124.482 23.9014 122.928 24.5562 122.284 26.0069L124.124 26.7674C124.518 26.0069 125.25 25.7594 126.019 25.7594C127.091 25.7594 128.181 26.3958 128.199 27.5284V27.6697C127.823 27.4574 127.019 27.1391 126.037 27.1391C124.052 27.1391 122.033 28.218 122.033 30.2349C122.033 32.0748 123.66 33.2602 125.482 33.2602C126.876 33.2602 127.645 32.641 128.127 31.9154H128.199V32.9775H130.201V27.7049C130.201 25.2635 128.359 23.9014 125.983 23.9014ZM113.17 25.8762H110.221V21.1627H113.17C114.72 21.1627 115.6 22.4329 115.6 23.5194C115.6 24.5851 114.72 25.8762 113.17 25.8762ZM113.117 19.2484H108.149V33.0004H110.221V27.7905H113.117C115.414 27.7905 117.673 26.144 117.673 23.5199C117.673 20.8963 115.414 19.2484 113.117 19.2484ZM86.0275 31.4403C84.5951 31.4403 83.3964 30.2526 83.3964 28.6229C83.3964 26.9742 84.5951 25.7698 86.0275 25.7698C87.4415 25.7698 88.5513 26.9743 88.5513 28.6229C88.5513 30.2526 87.4415 31.4403 86.0275 31.4403ZM88.408 24.972H88.3364C87.8712 24.4228 86.9757 23.9266 85.8486 23.9266C83.4854 23.9266 81.3196 25.9825 81.3196 28.6229C81.3196 31.2453 83.4854 33.2832 85.8486 33.2832C86.9757 33.2832 87.8711 32.7869 88.3364 32.2202H88.408V32.893C88.408 34.6835 87.4415 35.64 85.8842 35.64C84.6138 35.64 83.8261 34.7363 83.5036 33.9744L81.696 34.7186C82.2147 35.9586 83.5926 37.4832 85.8843 37.4832C88.3191 37.4832 90.3776 36.0652 90.3776 32.6094V24.21H88.4081L88.408 24.972ZM91.8099 32.9996H93.8854V19.2476H91.8099V32.9996ZM96.9465 28.4631C96.8931 26.6554 98.3614 25.7341 99.417 25.7341C100.241 25.7341 100.938 26.1419 101.172 26.7263L96.9465 28.4631ZM103.39 26.9033C102.997 25.8584 101.798 23.9266 99.3453 23.9266C96.9105 23.9266 94.888 25.8227 94.888 28.6049C94.888 31.2277 96.8931 33.2833 99.5775 33.2833C101.743 33.2833 102.997 31.9723 103.516 31.21L101.905 30.1466C101.368 30.9265 100.634 31.4404 99.5775 31.4404C98.522 31.4404 97.7699 30.9618 97.2873 30.0225L103.605 27.4354L103.39 26.9033ZM53.0495 25.3621V27.3468H57.8466C57.7034 28.4632 57.3275 29.2782 56.7546 29.8454C56.0563 30.5363 54.9644 31.2985 53.0495 31.2985C50.0959 31.2985 47.787 28.9418 47.787 26.0178C47.787 23.0938 50.0959 20.7367 53.0495 20.7367C54.6426 20.7367 55.8059 21.3571 56.6651 22.1545L58.0796 20.7542C56.88 19.6203 55.2871 18.752 53.0495 18.752C49.0035 18.752 45.6025 22.0127 45.6025 26.0178C45.6025 30.0224 49.0035 33.2833 53.0495 33.2833C55.233 33.2833 56.88 32.5743 58.1686 31.2453C59.4933 29.9339 59.9051 28.091 59.9051 26.6022C59.9051 26.142 59.869 25.7166 59.7975 25.3621H53.0495ZM65.3595 31.4403C63.9272 31.4403 62.692 30.2707 62.692 28.6049C62.692 26.9214 63.9272 25.7699 65.3595 25.7699C66.7913 25.7699 68.0265 26.9214 68.0265 28.6049C68.0265 30.2707 66.7913 31.4403 65.3595 31.4403ZM65.3595 23.9266C62.7454 23.9266 60.6156 25.8935 60.6156 28.6049C60.6156 31.2985 62.7454 33.2833 65.3595 33.2833C67.9727 33.2833 70.1029 31.2985 70.1029 28.6049C70.1029 25.8935 67.9727 23.9266 65.3595 23.9266ZM75.707 31.4403C74.2757 31.4403 73.0401 30.2707 73.0401 28.6049C73.0401 26.9214 74.2758 25.7699 75.707 25.7699C77.1394 25.7699 78.3741 26.9214 78.3741 28.6049C78.3741 30.2707 77.1394 31.4403 75.707 31.4403ZM75.707 23.9266C73.0939 23.9266 70.9641 25.8935 70.9641 28.6049C70.9641 31.2985 73.0939 33.2833 75.707 33.2833C78.3212 33.2833 80.451 31.2985 80.451 28.6049C80.451 25.8935 78.3212 23.9266 75.707 23.9266Z" fill="#1A2F36"/>
<path d="M23.0188 21.3668L11.1904 33.7964C11.1909 33.7989 11.1918 33.8011 11.1922 33.8037C11.5549 35.1534 12.8002 36.1472 14.278 36.1472C14.8688 36.1472 15.4234 35.9891 15.8991 35.7115L15.9369 35.6896L29.2519 28.0831L23.0188 21.3668Z" fill="#EB3131"/>
<path d="M34.9863 19.2507L34.9749 19.243L29.2264 15.9438L22.75 21.6493L29.2489 28.0824L34.9671 24.816C35.9696 24.2802 36.6502 23.2339 36.6502 22.0274C36.6502 20.8294 35.9788 19.7883 34.9863 19.2507Z" fill="#F6B60B"/>
<path d="M11.1886 10.2051C11.1175 10.4647 11.0801 10.7366 11.0801 11.019V32.9831C11.0801 33.2649 11.117 33.5377 11.189 33.7964L23.4257 21.6845L11.1886 10.2051Z" fill="#5778C5"/>
<path d="M23.1061 22.0014L29.2289 15.9417L15.9289 8.30756C15.4455 8.02091 14.8812 7.85547 14.2775 7.85547C12.7996 7.85547 11.5527 8.85108 11.1899 10.2024C11.1895 10.2037 11.1895 10.2046 11.1895 10.2057L23.1061 22.0014Z" fill="#3BAD49"/>
<path d="M52.6605 10.7599H49.4192V11.5539H51.8481C51.7821 12.2019 51.5216 12.7107 51.0824 13.0802C50.6432 13.4498 50.0824 13.6354 49.4192 13.6354C48.6918 13.6354 48.0755 13.3844 47.5704 12.8861C47.0755 12.3773 46.8239 11.7482 46.8239 10.9903C46.8239 10.2324 47.0755 9.60328 47.5704 9.09458C48.0755 8.59618 48.6918 8.34693 49.4192 8.34693C49.7926 8.34693 50.1484 8.41051 50.4747 8.54976C50.8012 8.68891 51.0633 8.88316 51.2682 9.13242L51.8845 8.52227C51.6049 8.20767 51.2508 7.9671 50.8115 7.79177C50.3723 7.61643 49.914 7.53228 49.4191 7.53228C48.4487 7.53228 47.6259 7.86569 46.954 8.53087C46.2821 9.19768 45.9453 10.0193 45.9453 10.9903C45.9453 11.9613 46.2821 12.7847 46.954 13.4499C47.6259 14.1149 48.4487 14.4485 49.4191 14.4485C50.4382 14.4485 51.2507 14.1253 51.8757 13.4687C52.426 12.9222 52.7073 12.1832 52.7073 11.2585C52.7073 11.1021 52.6883 10.9352 52.6605 10.7599ZM53.9161 7.67995V14.3005H57.8205V13.4875H54.7755V11.3873H57.522V10.5933H54.7755V8.49469H57.8205V7.67993L53.9161 7.67995ZM63.2953 8.49471V7.67995H58.6999V8.49471H60.568V14.3005H61.4273V8.49471H63.2953ZM67.4557 7.67995H66.5964V14.3005H67.4557V7.67995ZM73.1279 8.49471V7.67995H68.5326V8.49471H70.4005V14.3005H71.2598V8.49471H73.1279ZM81.7996 8.54113C81.1363 7.86564 80.3239 7.53223 79.3534 7.53223C78.3812 7.53223 77.5688 7.86563 76.9056 8.53081C76.2423 9.18739 75.9161 10.0106 75.9161 10.9902C75.9161 11.9698 76.2424 12.7932 76.9056 13.4498C77.5688 14.1149 78.3812 14.4484 79.3534 14.4484C80.3151 14.4484 81.1363 14.1149 81.7996 13.4498C82.4628 12.7932 82.7891 11.9699 82.7891 10.9902C82.7891 10.0192 82.4627 9.19758 81.7996 8.54113ZM77.5219 9.09452C78.0167 8.59612 78.6243 8.34687 79.3534 8.34687C80.0808 8.34687 80.6885 8.59613 81.1746 9.09452C81.6693 9.58434 81.9123 10.2236 81.9123 10.9902C81.9123 11.7586 81.6693 12.3961 81.1746 12.886C80.6885 13.3844 80.0808 13.6353 79.3534 13.6353C78.6243 13.6353 78.0166 13.3844 77.5219 12.886C77.0375 12.3858 76.7945 11.7585 76.7945 10.9902C76.7945 10.2236 77.0375 9.59464 77.5219 9.09452ZM84.8307 10.1773L84.7943 8.90023H84.8307L88.23 14.3005H89.1275V7.67989H88.2681V11.5539L88.3046 12.831H88.2681L85.0182 7.67989H83.9714V14.3005H84.8307V10.1773Z" fill="#1A2F36"/>
</g>
<defs>
<clipPath id="clip0_8029_98080">
<rect width="150" height="44" fill="white"/>
</clipPath>
</defs>
</svg>
